<?xml version="1.0" encoding="UTF-8" standalone="no"?>
<!-- Created with Inkscape (http://www.inkscape.org/) -->

<svg
   xmlns:dc="http://purl.org/dc/elements/1.1/"
   xmlns:cc="http://creativecommons.org/ns#"
   xmlns:rdf="http://www.w3.org/1999/02/22-rdf-syntax-ns#"
   xmlns:svg="http://www.w3.org/2000/svg"
   xmlns="http://www.w3.org/2000/svg"
   xmlns:xlink="http://www.w3.org/1999/xlink"
   xmlns:sodipodi="http://sodipodi.sourceforge.net/DTD/sodipodi-0.dtd"
   xmlns:inkscape="http://www.inkscape.org/namespaces/inkscape"
   width="722"
   height="720"
   viewBox="0 0 191.02915 190.5"
   version="1.1"
   id="svg8"
   inkscape:version="0.92.4 (5da689c313, 2019-01-14)"
   sodipodi:docname="banner.svg">
  <defs
     id="defs2">
    <linearGradient
       inkscape:collect="always"
       xlink:href="#linearGradient1131"
       id="linearGradient1125"
       x1="3836.1375"
       y1="601.97534"
       x2="3915.9246"
       y2="473.13806"
       gradientUnits="userSpaceOnUse" />
    <linearGradient
       id="linearGradient1131"
       inkscape:collect="always">
      <stop
         id="stop1127"
         offset="0"
         style="stop-color:#d900c2;stop-opacity:1" />
      <stop
         id="stop1129"
         offset="1"
         style="stop-color:#00d954;stop-opacity:1" />
    </linearGradient>
    <linearGradient
       inkscape:collect="always"
       xlink:href="#linearGradient1063"
       id="linearGradient1115"
       x1="3319.8064"
       y1="864.85614"
       x2="3365.0784"
       y2="770.17572"
       gradientUnits="userSpaceOnUse" />
    <linearGradient
       inkscape:collect="always"
       id="linearGradient1063">
      <stop
         style="stop-color:#d900c2;stop-opacity:1"
         offset="0"
         id="stop1059" />
      <stop
         style="stop-color:#00d954;stop-opacity:0.76923078"
         offset="1"
         id="stop1061" />
    </linearGradient>
  </defs>
  <sodipodi:namedview
     id="base"
     pagecolor="#ffffff"
     bordercolor="#666666"
     borderopacity="1.0"
     inkscape:pageopacity="0.0"
     inkscape:pageshadow="2"
     inkscape:zoom="0.35"
     inkscape:cx="510.5704"
     inkscape:cy="513.83094"
     inkscape:document-units="px"
     inkscape:current-layer="layer1"
     showgrid="false"
     units="px"
     inkscape:snap-global="false" />
  <metadata
     id="metadata5">
    <rdf:RDF>
      <cc:Work
         rdf:about="">
        <dc:format>image/svg+xml</dc:format>
        <dc:type
           rdf:resource="http://purl.org/dc/dcmitype/StillImage" />
        <dc:title></dc:title>
      </cc:Work>
    </rdf:RDF>
  </metadata>
  <g
     inkscape:label="Layer 1"
     inkscape:groupmode="layer"
     id="layer1"
     transform="translate(0,-106.49999)">
    <g
       id="g907"
       transform="matrix(1.132669,0,0,1.132669,-188.27977,-11.491781)">
      <path
         transform="matrix(1.3478609,0,0,1.3478609,-263.62521,25.619228)"
         d="m 395.43164,87.109375 c -0.19751,-0.0059 -0.37731,4.94e-4 -0.54297,0.01172 -0.58685,0.03908 -1.19644,0.321519 -1.80469,0.601562 a 1.5444142,1.5444142 0 0 0 -0.60351,0.199219 c -1.40716,0.820592 -2.61039,1.95498 -3.5293,3.181641 -0.67536,0.901551 -1.2621,1.903589 -1.51562,3.078125 -0.12342,0.411697 -0.21738,0.836499 -0.20313,1.308593 0.022,0.728297 0.2442,1.520727 0.71875,2.128907 L 387.79297,97.375 c 0.0685,0.133637 0.152,0.279248 0.25781,0.433594 0.51327,0.749196 1.2106,1.232736 1.88477,1.583984 0.37057,0.193072 -0.089,-0.178839 0.32812,0.328125 0.34139,0.414897 0.71643,0.945737 1.07227,1.503907 0.61009,0.99439 1.13408,2.04851 1.39258,2.79492 0.29386,0.84851 0.43352,1.67016 0.53515,3.46094 0.20759,3.65799 -0.174,6.84669 -1.1582,9.74609 -1.3028,3.59918 -3.61866,6.76779 -7.24219,9.90821 -2.71508,2.35309 -5.0161,3.91571 -12.53711,8.47656 -6.5508,3.97249 -8.87117,5.47931 -11.67969,7.60351 -1.20551,0.91178 -2.46255,1.94551 -3.50586,2.86133 -1.01782,0.89348 -1.80706,1.54823 -2.40039,2.41602 -0.44578,0.65201 -0.70807,1.38016 -0.84961,2.11328 -0.24796,1.01738 -0.26069,2.11069 0.0762,3.17187 0.24951,0.78612 0.64573,1.52957 1.09765,2.22071 0.20697,0.33949 0.42741,0.67325 0.66602,0.99023 0.64852,0.86153 1.42119,1.78285 2.64648,2.2832 1.27977,0.52259 3.24282,1.21121 5.03321,1.80079 0.89531,0.29483 1.73847,0.5623 2.42968,0.76562 l -0.1289,-0.0449 c 1.14627,0.45085 2.29443,0.51436 3.30078,0.35547 0.45441,-0.071 0.99916,-0.17005 1.60742,-0.28906 1.21962,-0.23862 2.68845,-0.55809 4.0293,-0.88672 5.73906,-1.40666 10.94455,-3.29282 15.74023,-5.71094 h 0.002 c 0.002,-0.001 0.0369,-0.019 0.0176,-0.01 a 1.5444142,1.5444142 0 0 0 0.0273,-0.0137 c 1.65395,-0.83812 4.66647,-2.62409 6.18945,-3.67383 6.67494,-4.6008 11.84114,-10.42937 15.13477,-17.15625 4.31433,-8.81158 5.21021,-19.02705 2.15429,-27.22851 -0.58431,-1.56816 -1.61201,-3.54258 -2.57031,-4.81641 -0.32729,-0.43502 -0.74647,-0.91737 -1.14648,-1.35547 -0.20171,-0.22097 -0.39664,-0.42646 -0.57618,-0.60547 -0.0852,-0.0849 -0.17431,-0.17213 -0.27929,-0.26562 a 1.5444142,1.5444142 0 0 0 -0.002,-0.002 c 0.0147,0.013 -0.0811,-0.0683 -0.16015,-0.13477 -0.0478,-0.05293 -0.11559,-0.131825 -0.19141,-0.222656 -1.61169,-1.930884 -4.14018,-2.656494 -6.67187,-2.404297 -0.42263,-0.41159 -1.24736,-1.399905 -3.03321,-4.195313 l -0.002,-0.002 -0.50781,-0.796875 0.008,-0.02344 c 0.13314,-0.452714 0.23783,-0.815854 0.30078,-1.232422 0.0787,-0.520742 0.0729,-1.030903 -0.14258,-1.625 -0.31224,-0.859513 -0.91546,-1.562554 -1.76562,-1.980469 -0.57903,-0.284647 -1.18371,-0.392639 -1.73828,-0.408203 z m 12.71875,12.527344 c -5e-5,10e-7 0.0143,0.0019 0.0156,0.002 a 1.5444142,1.5444142 0 0 0 -0.0274,0 c 9.2e-4,-1.11e-4 0.0117,-0.002 0.0117,-0.002 z m -0.26367,0.03125 a 1.5444142,1.5444142 0 0 0 -0.0332,0.0059 c 3.4e-4,-1.45e-4 0.01,-0.0039 0.01,-0.0039 -2e-5,5e-6 0.02,-0.0015 0.0234,-0.002 z"
         id="path871"
         style="fill:#ececec;fill-opacity:1;stroke:none;stroke-width:6.41921568;stroke-miterlimit:4;stroke-dasharray:none"
         xlink:href="#path834"
         inkscape:original="M 395.38867 88.652344 C 395.25865 88.648344 395.12634 88.653019 394.99219 88.662109 C 394.39991 88.701309 393.9737 88.840332 393.25781 89.257812 L 393.25781 89.255859 C 392.06209 89.953149 390.98831 90.960287 390.1875 92.029297 C 389.57521 92.846647 389.09977 93.684806 388.92383 94.541016 C 388.82117 94.862706 388.76711 95.169099 388.77539 95.443359 C 388.79079 95.953279 388.91079 96.340322 389.16797 96.669922 C 389.21437 96.760422 389.26599 96.850607 389.32422 96.935547 C 389.64421 97.402627 390.10269 97.739098 390.64844 98.023438 C 391.02841 98.221407 391.03857 98.231674 391.45703 98.740234 C 391.85749 99.226924 392.26674 99.807644 392.65234 100.41406 C 393.30776 101.48209 393.87089 102.59946 394.1875 103.51367 C 394.5381 104.52601 394.69979 105.54421 394.80469 107.39258 C 395.02178 111.21796 394.62264 114.62776 393.56055 117.74609 C 392.15607 121.62982 389.64506 125.03337 385.875 128.30078 C 383.08721 130.71689 380.66288 132.36174 373.12695 136.93164 C 366.58579 140.89829 364.34155 142.35717 361.57812 144.44727 C 360.4087 145.33175 359.17363 146.3467 358.16016 147.23633 C 357.14669 148.12598 356.41633 148.77721 356.01562 149.36328 C 355.69693 149.8294 355.49106 150.36999 355.38672 150.93945 C 355.19981 151.68554 355.20329 152.56662 355.43945 153.31055 C 355.62868 153.90673 355.96616 154.56103 356.36133 155.16406 C 356.54882 155.47388 356.75141 155.77506 356.96484 156.05859 C 357.56233 156.85232 358.165 157.51677 358.96094 157.8418 C 360.16588 158.33383 362.12436 159.02319 363.89258 159.60547 C 364.77669 159.89661 365.60875 160.15938 366.27539 160.35547 C 367.15263 160.70051 367.99184 160.74615 368.77148 160.62305 C 369.19427 160.55705 369.72537 160.46054 370.32227 160.34375 C 371.51608 160.11019 372.9693 159.79421 374.28125 159.47266 C 379.9209 158.09037 385.01207 156.24439 389.69531 153.88281 C 389.70571 153.87781 389.72768 153.86643 389.73828 153.86133 C 391.26434 153.08802 394.34616 151.25924 395.74805 150.29297 C 402.22817 145.82645 407.20479 140.19935 410.37305 133.72852 C 414.51492 125.26918 415.3388 115.42661 412.4668 107.71875 C 411.95343 106.34099 410.89781 104.33905 410.10938 103.29102 C 409.83873 102.93129 409.43505 102.46327 409.05664 102.04883 C 408.86747 101.8416 408.68658 101.65096 408.53125 101.49609 C 408.45355 101.41869 408.38402 101.35102 408.31445 101.28906 C 408.27295 101.25216 408.2425 101.21903 408.18945 101.17969 C 408.18645 101.18169 408.16781 101.17582 408.16211 101.16992 C 408.15811 101.16592 408.14537 101.15133 408.13867 101.14453 C 408.11087 101.12673 408.0786 101.10834 408.03711 101.08594 C 408.08451 101.11144 408.11137 101.12653 408.13477 101.14062 C 408.11857 101.12413 408.10332 101.11118 408.07812 101.08398 C 408.00342 101.00338 407.9032 100.88795 407.80273 100.76758 C 406.42564 99.11776 404.07657 98.490424 401.69922 98.964844 C 401.67572 98.969844 401.68477 98.967703 401.66797 98.970703 C 401.63737 98.948403 401.6206 98.938025 401.56445 98.890625 C 400.8945 98.324825 399.93213 97.063102 397.98047 94.007812 L 397.09375 92.617188 L 397.29883 91.919922 C 397.42875 91.478152 397.51141 91.178998 397.55469 90.892578 C 397.59799 90.606148 397.58008 90.278521 397.48828 90.025391 C 397.31582 89.550661 396.94887 89.128787 396.49219 88.904297 C 396.14969 88.735927 395.77874 88.663014 395.38867 88.652344 z M 409.0957 104.82617 C 409.69554 105.78161 410.52524 107.37384 410.875 108.3125 C 412.9079 113.76838 412.95618 120.54843 411.11719 127.03711 C 412.90125 120.50551 412.81836 113.70806 410.74609 108.14648 C 410.3983 107.2131 409.70683 105.84111 409.0957 104.82617 z "
         inkscape:radius="1.5442598"
         sodipodi:type="inkscape:offset"
         inkscape:href="#path834" />
      <g
         id="g1191"
         transform="matrix(0.10982412,-0.06340699,0.06340699,0.10982412,-199.16861,355.2924)">
        <g
           id="g1170"
           transform="matrix(1.2034585,0,0,1.2034585,-678.71826,-164.21044)">
          <path
             inkscape:connector-curvature="0"
             id="path1047"
             d="m 3572.1319,941.7899 c -45.6341,-2.5833 -92.1444,-10.849 -140.9049,-25.0413 -22.6342,-6.5879 -49.7312,-15.8811 -53.2104,-18.2489 -5.2739,-3.58922 -39.3362,-41.72192 -52.9321,-59.25734 -5.6632,-7.30415 -8.2659,-28.59116 -5.2014,-42.5405 2.2017,-10.02125 9.6127,-20.21166 17.4267,-23.96206 6.7386,-3.23424 36.6798,-9.20479 61.9471,-12.3528 30.0977,-3.74983 53.2581,-4.98456 120.75,-6.43747 77.9045,-1.67706 104.4158,-3.5835 136.875,-9.84275 79.6278,-15.35494 131.0871,-53.83908 166.8454,-124.77625 7.3598,-14.60047 10.6153,-23.10222 12.4041,-32.39337 2.7472,-14.26876 2.7258,-36.18881 -0.052,-52.88089 -1.0048,-6.03845 -1.7363,-8.15962 -4.0883,-11.85441 -5.0773,-7.97582 -5.5151,-13.64596 -1.6136,-20.90051 6.5066,-12.09851 31.9947,-23.00298 53.9906,-23.09853 7.2048,-0.0313 8.0679,0.12955 12.5588,2.34038 6.9758,3.43418 9.9627,7.89208 8.986,13.41136 -0.3921,2.21568 -1.8642,4.06001 -7.6072,9.53114 l -7.121,6.78384 0.8064,17.96616 c 1.4424,32.13901 3.0666,46.44945 6.2856,55.38201 1.5335,4.2553 1.7717,4.50989 5.3549,5.72372 18.1864,6.16081 31.0551,19.4752 33.7341,34.90264 0.5154,2.968 1.1437,5.73064 1.3962,6.13919 1.0461,1.69267 4.2103,16.09016 5.0513,22.98446 1.208,9.90272 0.4844,30.44379 -1.4838,42.12511 -11.641,69.08732 -60.2096,139.36381 -127.6499,184.70339 -51.6585,34.72968 -113.2796,55.39908 -181.4229,60.85438 -14.3258,1.1469 -46.9541,1.5415 -61.125,0.7393 z"
             style="fill:#ffe200;fill-opacity:1;stroke:none;stroke-width:15.00000095;stroke-miterlimit:4;stroke-dasharray:none" />
          <path
             style="fill:#fff186;fill-opacity:1;stroke:none;stroke-width:0.75000006px;stroke-linecap:butt;stroke-linejoin:miter;stroke-opacity:1"
             d="m 3850.0339,574.22349 c 0,0 15.0838,102.33247 -40.0465,151.4704 -154.3942,97.14473 -357.6338,98.0734 -468.6081,50.33639 85.8079,-22.80445 285.741,-2.63358 399.0526,-54.68248 89.522,-41.12135 101.186,-140.09771 109.602,-147.12431 z"
             id="path1105"
             inkscape:connector-curvature="0"
             sodipodi:nodetypes="cccsc" />
          <path
             style="fill:url(#linearGradient1125);fill-opacity:1;stroke:#1a1a1a;stroke-width:7.50000048;stroke-linecap:butt;stroke-linejoin:miter;stroke-miterlimit:4;stroke-dasharray:none;stroke-opacity:1"
             d="m 3841.9493,598.72883 c 37.2743,17.34968 51.1099,6.79622 65.2542,-3.38982 l -8.3464,-81.91301 c 0,0 17.2447,-11.30734 13.855,-20.62937 -3.3899,-9.32203 -21.6102,-16.94915 -32.6272,-13.98305 -11.0169,2.9661 -38.5593,10.16949 -41.5254,21.18644 -2.9661,11.01695 -4.661,18.64407 -1.6949,20.76271 2.9661,2.11865 8.8983,40.67797 8.0508,47.45763 -0.8475,6.77967 -2.9661,30.50847 -2.9661,30.50847 z"
             id="path1117"
             inkscape:connector-curvature="0"
             sodipodi:nodetypes="cccccscsc" />
          <path
             sodipodi:nodetypes="cccscsscssccccccccccccccsccccccccccccccccccccccccccccccccccccccccccscccccccccsccccccccccccscsscccccccscc"
             inkscape:connector-curvature="0"
             style="color:#000000;font-style:normal;font-variant:normal;font-weight:normal;font-stretch:normal;font-size:medium;line-height:normal;font-family:sans-serif;font-variant-ligatures:normal;font-variant-position:normal;font-variant-caps:normal;font-variant-numeric:normal;font-variant-alternates:normal;font-feature-settings:normal;text-indent:0;text-align:start;text-decoration:none;text-decoration-line:none;text-decoration-style:solid;text-decoration-color:#000000;letter-spacing:normal;word-spacing:normal;text-transform:none;writing-mode:lr-tb;direction:ltr;text-orientation:mixed;dominant-baseline:auto;baseline-shift:baseline;text-anchor:start;white-space:normal;shape-padding:0;clip-rule:nonzero;display:inline;overflow:visible;visibility:visible;opacity:1;isolation:auto;mix-blend-mode:normal;color-interpolation:sRGB;color-interpolation-filters:linearRGB;solid-color:#000000;solid-opacity:1;vector-effect:none;fill:#1a1a1a;fill-opacity:1;fill-rule:nonzero;stroke:none;stroke-width:20;stroke-linecap:butt;stroke-linejoin:miter;stroke-miterlimit:4;stroke-dasharray:none;stroke-dashoffset:0;stroke-opacity:1;color-rendering:auto;image-rendering:auto;shape-rendering:auto;text-rendering:auto;enable-background:accumulate"
             d="m 5189.3066,631.70508 c -16.2996,0.0708 -33.1661,4.0164 -47.6269,10.20312 -14.4609,6.18672 -26.7991,14.09832 -33.1231,25.85742 -3.1897,5.93096 -5.0874,12.43267 -4.5742,19.08008 0.5132,6.6474 3.2063,12.78157 7.0977,18.89453 2.7094,4.25614 2.7484,4.42801 4.0215,12.07813 3.4724,20.86591 3.4167,49.82807 0.1152,66.97656 -2.1733,11.28847 -6.0042,21.44768 -15.6484,40.58008 -46.5963,92.43753 -111.5192,141.01211 -215.4258,161.04883 -42.6556,8.22546 -77.0619,10.7117 -180.8203,12.94531 -90.0619,1.93876 -121.5359,3.61196 -162.0235,8.65626 -17.1336,2.1346 -35.7078,5.2051 -51.2812,8.3105 -15.5735,3.1055 -26.8653,5.4529 -34.4024,9.0703 -14.5654,6.991 -25.0377,22.2509 -28.6777,38.8184 -2.3991,10.9203 -2.4746,23.4286 -1.0547,35.041 1.4199,11.6125 3.6502,21.9522 9.8535,29.9532 9.3911,12.1121 25.2925,30.6645 39.8965,47.0136 7.302,8.1746 14.2545,15.7647 19.8984,21.6895 6.9145,8.6838 15.2054,14.0712 23.8809,17.4062 4.7004,1.8161 10.6822,3.9637 17.457,6.2871 13.5498,4.647 30.2274,9.9727 45.5,14.418 65.652,19.1088 128.4372,30.2808 190.1016,33.7715 0.1363,0.01 0.4281,10e-5 0.5664,0.01 20.1159,1.0989 62.3131,0.5902 82.2988,-1.0098 92.3826,-7.3958 176.2686,-35.473 246.6778,-82.8086 92.0461,-61.8819 158.3864,-157.3934 174.4804,-252.90816 2.8767,-17.07311 3.915,-43.70904 2.045,-59.03906 -0.6419,-5.26203 -2.0053,-12.40502 -3.4239,-18.85938 -0.7092,-3.22717 -1.4274,-6.23457 -2.0996,-8.72852 -0.336,-1.24697 -0.6554,-2.35698 -1,-3.39843 -0.2058,-0.62231 -0.3314,-1.13461 -0.6426,-1.85157 -0.045,-10e-4 -0.1833,-0.17499 -0.2089,-0.26562 -0.017,-0.0619 -0.068,-0.28141 -0.096,-0.38672 -0.1792,-0.34475 -0.3935,-0.73045 -0.6856,-1.20312 0.3334,0.53949 0.5161,0.86279 0.6719,1.14453 -0.068,-0.26385 -0.13,-0.49305 -0.2266,-0.91797 -0.287,-1.26202 -0.645,-3.04419 -0.9609,-4.86328 -4.3296,-24.93294 -24.5855,-45.13764 -51.6231,-54.29688 -0.2674,-0.0907 -0.1648,-0.0598 -0.3535,-0.1289 -0.1804,-0.40787 -0.2926,-0.60981 -0.5859,-1.42383 -3.5008,-9.71468 -5.8847,-28.25146 -7.7988,-70.90039 l -0.8711,-19.40625 6.1992,-5.9043 c 3.926,-3.74017 6.5362,-6.3183 8.664,-8.98437 2.128,-2.66611 3.8732,-6.09785 4.4258,-9.22071 1.0364,-5.8568 -0.2153,-12.31676 -3.5508,-17.29492 -3.3354,-4.97816 -8.178,-8.50576 -13.8593,-11.30273 -6.271,-3.08712 -11.4484,-4.19084 -21.2071,-4.14844 z m 81.7481,208.79297 c 0,0.0168 0.01,0.0427 0.014,0.0586 0.1289,0.24812 0.2169,0.45025 0.3046,0.65234 0.041,10e-4 -0.04,-0.20696 -0.3183,-0.71093 z m -75.1231,-188.89063 c 0.3934,0.008 0.7157,0.0299 1.0098,0.0742 v 0 c 1.1764,0.17717 1.8839,0.71101 4.7363,2.11524 3.6196,1.78193 5.4207,3.51392 6.0762,4.49218 0.6137,0.91599 0.6945,1.2199 0.4882,2.47852 -0.049,0.0405 -0.058,0.0279 -0.3769,0.42773 -0.8985,1.12575 -3.0968,3.42384 -6.8281,6.97852 l -12.7911,12.18555 1.2774,28.50585 c 1.9324,43.05508 3.8816,62.67773 8.9648,76.78321 1.0568,2.93238 1.7295,5.65723 4.6504,8.77929 2.9208,3.12208 6.1613,4.07782 8.6875,4.9336 21.4595,7.2696 35.5217,22.57044 38.336,38.77734 0.3713,2.13824 0.7743,4.17169 1.1621,5.87695 0.194,0.85264 0.3782,1.61199 0.5898,2.36133 0.1811,0.64143 -0.086,0.7705 0.9121,2.54688 -0.015,-0.0209 0.063,0.10493 0.08,0.14258 0.04,0.0808 0.084,0.17433 0.1172,0.27539 0.1576,0.47625 0.4065,1.3066 0.6797,2.32031 0.5462,2.02744 1.215,4.81717 1.875,7.82031 1.3201,6.00629 2.626,13.05593 3.1054,16.98633 1.3512,11.07723 0.4598,39.21784 -1.9121,53.29492 -14.9488,88.71815 -78.1252,180.60915 -165.9199,239.63285 -67.3468,45.2768 -147.7803,72.319 -237.1133,79.4707 -18.079,1.4473 -62.2937,1.9789 -80.1386,0.9687 -60.0266,-3.398 -121.2666,-14.2684 -185.6426,-33.0058 -14.9063,-4.3386 -31.3821,-9.5991 -44.6016,-14.1328 -6.6097,-2.2669 -12.4167,-4.3557 -16.7383,-6.0254 -3.2412,-1.2523 -6.1711,-2.7268 -6.8789,-3.0078 -0.8604,-0.8723 -5.2346,-4.8217 -9.7265,-9.5371 -5.4158,-5.685 -12.2698,-13.1635 -19.4668,-21.2208 -14.3943,-16.1142 -30.2652,-34.6749 -39.002,-45.9433 -1.3476,-1.7381 -4.6291,-10.4616 -5.8105,-20.125 -1.1816,-9.6634 -0.9506,-20.6434 0.7363,-28.3223 2.2313,-10.1558 11.5251,-22.0699 17.7969,-25.0801 1.4477,-0.6948 14.6061,-4.482 29.6621,-7.4843 15.056,-3.0023 33.2876,-6.0155 49.8437,-8.0782 39.773,-4.9552 70.062,-6.5721 159.9786,-8.5078 103.9867,-2.2385 140.2754,-4.8368 184.1777,-13.3027 108.4341,-20.90981 180.7388,-74.95927 229.498,-171.68752 9.9819,-19.80219 14.8329,-32.31088 17.4297,-45.79883 4.0242,-20.90153 3.9084,-50.39665 -0.027,-74.04297 -1.4064,-8.45241 -3.3182,-13.93656 -6.8809,-19.5332 -2.8782,-4.52147 -3.8568,-7.48389 -4.0273,-9.69336 -0.1706,-2.20947 0.2377,-4.32463 2.25,-8.06641 2.3514,-4.37224 11.3428,-11.79576 23.375,-16.94335 12.032,-5.14763 26.8194,-8.53522 39.8476,-8.5918 3.5453,-0.0154 5.3571,-0.12078 6.5371,-0.0977 z"
             id="path1038"
             transform="scale(0.75000003)" />
          <path
             style="fill:url(#linearGradient1115);fill-opacity:1;stroke:#1a1a1a;stroke-width:7.50000048;stroke-linecap:butt;stroke-linejoin:miter;stroke-miterlimit:4;stroke-dasharray:none;stroke-opacity:1"
             d="m 3341.3793,776.03028 c 0,0 26.9659,-2.39692 27.5652,22.77128 0.5992,25.1682 4.7939,48.53865 -11.3856,49.1379 -16.1796,0.59925 -26.966,1.79775 -28.7637,-10.78635 -3.5549,-26.87501 -7.1541,-43.85196 12.5841,-61.12283 z"
             id="path1107"
             inkscape:connector-curvature="0"
             sodipodi:nodetypes="ccscc" />
          <path
             style="fill:none;stroke:#1a1a1a;stroke-width:15.00000095;stroke-linecap:round;stroke-linejoin:miter;stroke-miterlimit:4;stroke-dasharray:none;stroke-opacity:1"
             d="m 3838.4514,519.25466 c 44.5615,16.52474 51.252,3.26072 60.4057,-5.82866"
             id="path1133"
             inkscape:connector-curvature="0"
             sodipodi:nodetypes="cc" />
        </g>
        <path
           style="color:#000000;font-style:normal;font-variant:normal;font-weight:normal;font-stretch:normal;font-size:medium;line-height:normal;font-family:sans-serif;font-variant-ligatures:normal;font-variant-position:normal;font-variant-caps:normal;font-variant-numeric:normal;font-variant-alternates:normal;font-feature-settings:normal;text-indent:0;text-align:start;text-decoration:none;text-decoration-line:none;text-decoration-style:solid;text-decoration-color:#000000;letter-spacing:normal;word-spacing:normal;text-transform:none;writing-mode:lr-tb;direction:ltr;text-orientation:mixed;dominant-baseline:auto;baseline-shift:baseline;text-anchor:start;white-space:normal;shape-padding:0;clip-rule:nonzero;display:inline;overflow:visible;visibility:visible;opacity:1;isolation:auto;mix-blend-mode:normal;color-interpolation:sRGB;color-interpolation-filters:linearRGB;solid-color:#000000;solid-opacity:1;vector-effect:none;fill:#1a1a1a;fill-opacity:1;fill-rule:nonzero;stroke:none;stroke-width:7.50000048;stroke-linecap:butt;stroke-linejoin:round;stroke-miterlimit:4;stroke-dasharray:none;stroke-dashoffset:0;stroke-opacity:1;color-rendering:auto;image-rendering:auto;shape-rendering:auto;text-rendering:auto;enable-background:accumulate"
           d="m 3981.3242,731.68359 c -6.0587,29.94408 -268.6132,212.05698 -561.7676,130.60547 l -1.6894,7.3086 c 265.6145,84.65087 502.4198,-38.66466 568.7617,-132.61328 z"
           id="path1172"
           inkscape:connector-curvature="0"
           sodipodi:nodetypes="ccccc" />
      </g>
    </g>
  </g>
</svg>
