<?xml version="1.0" encoding="UTF-8" standalone="no"?>
<!-- Created with Inkscape (http://www.inkscape.org/) -->

<svg
   xmlns:dc="http://purl.org/dc/elements/1.1/"
   xmlns:cc="http://creativecommons.org/ns#"
   xmlns:rdf="http://www.w3.org/1999/02/22-rdf-syntax-ns#"
   xmlns:svg="http://www.w3.org/2000/svg"
   xmlns="http://www.w3.org/2000/svg"
   xmlns:sodipodi="http://sodipodi.sourceforge.net/DTD/sodipodi-0.dtd"
   xmlns:inkscape="http://www.inkscape.org/namespaces/inkscape"
   width="649.84198"
   height="118.408"
   viewBox="0 0 171.93735 31.328784"
   version="1.1"
   id="svg8"
   inkscape:version="0.92.4 (5da689c313, 2019-01-14)"
   sodipodi:docname="degenbanana-letter-logo.svg">
  <defs
     id="defs2" />
  <sodipodi:namedview
     id="base"
     pagecolor="#ffffff"
     bordercolor="#666666"
     borderopacity="1.0"
     inkscape:pageopacity="0.0"
     inkscape:pageshadow="2"
     inkscape:zoom="0.49497475"
     inkscape:cx="39.095025"
     inkscape:cy="366.81278"
     inkscape:document-units="px"
     inkscape:current-layer="layer1"
     showgrid="false"
     units="px"
     inkscape:snap-global="false" />
  <metadata
     id="metadata5">
    <rdf:RDF>
      <cc:Work
         rdf:about="">
        <dc:format>image/svg+xml</dc:format>
        <dc:type
           rdf:resource="http://purl.org/dc/dcmitype/StillImage" />
        <dc:title></dc:title>
      </cc:Work>
    </rdf:RDF>
  </metadata>
  <g
     inkscape:label="Layer 1"
     inkscape:groupmode="layer"
     id="layer1"
     transform="translate(0,-265.6712)">
    <g
       id="g1012"
       transform="translate(52.916445,51.443206)">
      <path
         inkscape:connector-curvature="0"
         id="path983"
         d="m -40.391076,214.22804 a 3.8918943,3.8918943 0 0 0 -3.890719,3.89072 v 1.90428 c -1.073819,0.10493 -2.165159,0.23483 -3.144509,0.7245 -1.184812,0.5924 -2.247495,1.45448 -3.078367,2.48254 a 3.8918943,3.8918943 0 0 0 -0.0036,0.004 c -0.82458,1.02361 -1.419228,2.20153 -1.814878,3.43545 -0.40662,1.26015 -0.593243,2.58461 -0.593243,3.92224 0,1.35474 0.146947,2.66149 0.501777,3.91604 a 3.8918943,3.8918943 0 0 0 0.01188,0.045 c 0.3494,1.18075 0.864354,2.30587 1.601454,3.30833 0.730739,0.99381 1.703403,1.87206 2.843752,2.46703 1.14041,0.59499 2.445081,0.89814 3.706752,0.89814 0.708279,0 1.420973,-0.0784 2.123384,-0.24598 0.544899,-0.12178 1.08789,-0.32146 1.621089,-0.55656 0.55595,0.24241 1.125,0.59945 1.614889,0.59945 h 2.437578 a 3.8918943,3.8918943 0 0 0 3.453018,-2.09962 c 0.795409,0.61707 1.592742,1.25058 2.529563,1.60559 a 3.8918943,3.8918943 0 0 0 0.04702,0.0176 c 1.255951,0.45789 2.59348,0.67955 3.935161,0.67955 0.630849,0 1.264349,-0.0468 1.900658,-0.13281 0.759061,-0.0924 1.497695,-0.26231 2.205035,-0.49403 a 3.8918943,3.8918943 0 0 0 0.03876,-0.0119 c 0.242962,-0.0824 0.460703,-0.22842 0.697632,-0.32815 0.135081,0.38846 0.120399,0.83496 0.316259,1.17771 0.602081,1.05363 1.465292,1.85729 2.372982,2.43757 0.937882,0.60268 1.939568,0.9919 2.980698,1.26401 a 3.8918943,3.8918943 0 0 0 0.0098,0.002 c 1.169418,0.3022 2.376437,0.41599 3.656107,0.41599 1.378228,0 2.7218671,-0.17739 4.0059562,-0.60306 1.165471,-0.3784 2.2760886,-0.92248 3.251999,-1.69137 0.935728,-0.73724 1.7661281,-1.68656 2.3337069,-2.805 0.1530007,-0.30149 0.1273334,-0.67511 0.242361,-0.99994 0.5693622,0.35761 1.0635747,0.83517 1.68930373,1.07229 a 3.8918943,3.8918943 0 0 0 0.0470244,0.0176 c 1.25594002,0.45789 2.59400937,0.67955 3.93567707,0.67955 0.6308407,0 1.263097,-0.0469 1.8980758,-0.13281 0.7579413,-0.0922 1.4968775,-0.26136 2.2071012,-0.49403 a 3.8918943,3.8918943 0 0 0 0.039275,-0.0119 c 0.6801035,-0.23053 1.3208026,-0.55912 1.9414833,-0.91778 a 3.8918943,3.8918943 0 0 0 2.9471064,1.35341 h 3.935677 a 3.8918943,3.8918943 0 0 0 2.029333,-0.57619 3.8918943,3.8918943 0 0 0 2.035019,0.57619 h 3.937227 a 3.8918943,3.8918943 0 0 0 1.935798,-0.51935 3.8918943,3.8918943 0 0 0 1.935284,0.51935 h 2.615343 c 0.470924,0 1.036293,-0.10447 1.625224,-0.29663 0.249999,0.0877 0.489138,0.21341 0.74414,0.27544 0.676781,0.16462 1.335604,0.22428 1.987992,0.22428 1.358617,0 2.751003,-0.29516 3.99614,-0.91003 a 3.8918943,3.8918943 0 0 0 0.03514,-0.0155 c 0.782458,-0.39607 1.374741,-1.05069 2.009696,-1.64848 0.176929,0.20308 0.254616,0.46795 0.455271,0.64854 a 3.8918943,3.8918943 0 0 0 0.03514,0.031 c 0.774896,0.6804 1.688629,1.16919 2.615343,1.47278 a 3.8918943,3.8918943 0 0 0 0.05633,0.0196 c 0.921311,0.28592 1.863505,0.40205 2.793111,0.40205 0.656013,0 1.308219,-0.0589 1.961121,-0.19121 0.555918,-0.10423 1.097655,-0.28583 1.624705,-0.50022 0.82844,0.32342 1.583103,0.48834 2.179712,0.48834 h 1.80299 a 3.8918943,3.8918943 0 0 0 1.921848,-0.50953 3.8918943,3.8918943 0 0 0 1.917711,0.50953 h 3.937746 a 3.8918943,3.8918943 0 0 0 2.029333,-0.57619 3.8918943,3.8918943 0 0 0 2.035016,0.57619 h 3.935677 a 3.8918943,3.8918943 0 0 0 2.636533,-1.03508 c 0.483362,0.28278 0.934395,0.64841 1.447456,0.81649 a 3.8918943,3.8918943 0 0 0 0.05633,0.0196 c 0.918522,0.28506 1.86144,0.40205 2.791044,0.40205 0.656032,0 1.307792,-0.0584 1.963188,-0.19121 0.555909,-0.10423 1.097648,-0.28583 1.624707,-0.50022 0.82482,0.32173 1.581642,0.48834 2.178161,0.48834 h 1.804541 a 3.8918943,3.8918943 0 0 0 1.921847,-0.50953 3.8918943,3.8918943 0 0 0 1.917712,0.50953 h 3.935677 a 3.8918943,3.8918943 0 0 0 2.029334,-0.57619 3.8918943,3.8918943 0 0 0 2.035018,0.57619 h 3.937749 a 3.8918943,3.8918943 0 0 0 2.63446,-1.03301 c 0.48312,0.28256 0.93469,0.64644 1.44746,0.81442 a 3.8918943,3.8918943 0 0 0 0.0568,0.0196 c 0.92135,0.28594 1.863,0.40205 2.7926,0.40205 0.65602,0 1.30818,-0.0589 1.96112,-0.19121 0.55595,-0.10423 1.09821,-0.28584 1.62522,-0.50022 0.82846,0.32344 1.5831,0.48834 2.17971,0.48834 h 1.80248 a 3.8918943,3.8918943 0 0 0 3.89072,-3.89072 v -8.23051 c 0,-1.16117 -0.18616,-2.33619 -0.59945,-3.4432 -0.40509,-1.08506 -1.04766,-2.1171 -1.8774,-2.97088 -0.83746,-0.8772 -1.87195,-1.55113 -2.96675,-1.98799 -1.16102,-0.47494 -2.39326,-0.68161 -3.6034,-0.68161 -1.50903,0 -3.00704,0.23967 -4.41988,0.74207 -1.21651,0.4279 -2.29622,1.15657 -3.31246,1.95337 -0.73023,-0.80257 -1.6133,-1.48221 -2.583826,-1.91409 -1.125556,-0.51224 -2.333867,-0.73071 -3.498494,-0.73071 -0.670409,0 -1.348636,0.0687 -2.0252,0.22273 -0.533197,0.11617 -1.055174,0.29972 -1.562178,0.51573 -0.495093,-0.19703 -1.002804,-0.53744 -1.441772,-0.53744 h -2.437578 a 3.8918943,3.8918943 0 0 0 -3.300573,1.83245 c -0.663965,-0.53162 -1.317842,-1.0936 -2.091862,-1.4025 -1.161025,-0.47494 -2.39326,-0.68161 -3.603398,-0.68161 -1.509035,0 -3.00756,0.23912 -4.421952,0.74207 -1.217732,0.42834 -2.295861,1.15756 -3.310393,1.95337 -0.730228,-0.80256 -1.613812,-1.48221 -2.584338,-1.91409 -1.128618,-0.51364 -2.335411,-0.73071 -3.500044,-0.73071 -0.670398,0 -1.349377,0.0694 -2.023134,0.22273 -0.530875,0.11562 -1.054152,0.29834 -1.564761,0.51573 -0.494493,-0.1966 -1.000742,-0.53744 -1.439188,-0.53744 h -2.439646 a 3.8918943,3.8918943 0 0 0 -3.298505,1.83245 c -0.665403,-0.5322 -1.321451,-1.09425 -2.093931,-1.4025 -1.161029,-0.47494 -2.393259,-0.68161 -3.603397,-0.68161 -1.509036,0 -3.00704,0.23967 -4.419883,0.74207 -1.240044,0.43618 -2.346106,1.17144 -3.377057,1.99006 -0.659715,-0.6877 -1.328571,-1.38879 -2.179712,-1.81436 -1.115282,-0.55764 -2.362959,-0.79462 -3.576008,-0.82217 v -1.79472 a 3.8918943,3.8918943 0 0 0 -3.890719,-3.89072 h -3.937743 a 3.8918943,3.8918943 0 0 0 -3.890203,3.89072 v 3.18534 c -0.335547,-0.21511 -0.592852,-0.54531 -0.951363,-0.70487 -1.128619,-0.51364 -2.33541,-0.73071 -3.500045,-0.73071 -0.670396,0 -1.349894,0.0694 -2.023647,0.22273 -0.530879,0.11562 -1.053637,0.29834 -1.564246,0.51573 -0.495094,-0.19703 -1.002287,-0.53744 -1.441257,-0.53744 H 12.22789 a 3.8918943,3.8918943 0 0 0 -3.2990234,1.82832 c -0.6971188,-0.5127 -1.3679408,-1.08067 -2.163691,-1.37718 -1.1958161,-0.44879 -2.4710628,-0.65422 -3.7480927,-0.65422 a 3.8918943,3.8918943 0 0 0 -1.4748457,0.293 c -0.94330839,0.12114 -1.90342044,0.16597 -2.7869092,0.54726 a 3.8918943,3.8918943 0 0 0 -0.013954,0.006 c -0.5304393,0.23137 -0.934638,0.66957 -1.4216168,0.9865 a 3.8918943,3.8918943 0 0 0 -2.8241175,-1.22111 h -3.4106458 c -0.3671094,-0.12502 -0.7179654,-0.29255 -1.0976059,-0.37672 -0.0013,-2.9e-4 -0.0023,2.8e-4 -0.0036,0 -0.803958,-0.17989 -1.61602,-0.25787 -2.424139,-0.25787 -1.104911,0 -2.208432,0.14949 -3.267501,0.47284 -1.040622,0.30944 -2.0555,0.78889 -2.954859,1.47071 -7.12e-4,5.4e-4 -0.0014,0.001 -0.0021,0.002 -0.357608,0.2706 -0.556863,0.69167 -0.865063,1.02165 -0.06299,-0.0664 -0.08153,-0.16195 -0.146759,-0.22635 -0.922002,-0.91788 -2.050061,-1.61872 -3.24218,-2.06292 -1.195811,-0.44878 -2.471063,-0.65422 -3.748093,-0.65422 a 3.8918943,3.8918943 0 0 0 -1.476394,0.293 c -0.942311,0.12144 -1.901973,0.1669 -2.783295,0.54726 a 3.8918943,3.8918943 0 0 0 -0.01344,0.006 c -0.60533,0.26404 -1.076066,0.7501 -1.623155,1.12499 v -3.71863 a 3.8918943,3.8918943 0 0 0 -3.890719,-3.89072 z m 56.322142,6.43165 c -0.0064,0.003 -0.01113,0.008 -0.01757,0.0114 -0.0087,0.004 -0.01866,0.004 -0.02739,0.008 z m 46.185296,0 c -0.0064,0.003 -0.01113,0.008 -0.01757,0.0114 -0.0087,0.004 -0.01866,0.004 -0.02739,0.008 z m 30.279287,0 c -0.0064,0.003 -0.0112,0.009 -0.01757,0.0114 -0.0087,0.004 -0.01874,0.004 -0.02739,0.008 z m -60.439205,0.0331 c -0.0085,0.004 -0.01475,0.0114 -0.02325,0.0155 -0.005,0.002 -0.01107,0.002 -0.01602,0.004 z m -52.847935,3.71502 c -0.0016,0.003 5e-5,0.007 -0.0016,0.01 -0.0024,0.004 -0.0075,0.007 -0.0098,0.0114 z m 55.035399,6.16603 c 0.04427,0.007 0.148251,0.0278 0.156062,0.031 -0.0019,4e-5 -0.01382,0.004 -0.0155,0.004 -0.02261,0 -0.10582,-0.0321 -0.14056,-0.0351 z"
         style="font-style:normal;font-variant:normal;font-weight:900;font-stretch:normal;font-size:25.39999962px;line-height:1.25;font-family:Lato;-inkscape-font-specification:'Lato Heavy';letter-spacing:1.32291663px;word-spacing:0px;fill:#333333;fill-opacity:1;stroke:none;stroke-width:0.26458332" />
      <g
         id="g1006">
        <path
           style="font-style:normal;font-variant:normal;font-weight:900;font-stretch:normal;font-size:25.39999962px;line-height:1.25;font-family:Lato;-inkscape-font-specification:'Lato Heavy';letter-spacing:1.32291663px;word-spacing:0px;fill:#ffffff;fill-opacity:1;stroke:none;stroke-width:0.99999994"
           d="m -152.65625,-203.16211 v 25.20117 c -1.44,-1.216 -3.05566,-2.19173 -4.84766,-2.92773 -1.76,-0.768 -3.92046,-1.15235 -6.48047,-1.15235 -3.168,0 -6.06349,0.65675 -8.6875,1.96875 -2.624,1.312 -4.87957,3.13471 -6.76757,5.47071 -1.856,2.304 -3.29632,5.05586 -4.32032,8.25586 -1.024,3.168 -1.53711,6.60831 -1.53711,10.32031 0,4.032 0.44775,7.63278 1.34376,10.80078 0.928,3.136 2.19296,5.7908 3.79296,7.9668 1.6,2.176 3.50294,3.84018 5.71094,4.99219 2.208,1.152 4.60917,1.72851 7.20117,1.72851 1.696,0 3.26313,-0.17534 4.70313,-0.52734 1.472,-0.32 2.83208,-0.78458 4.08008,-1.39258 1.28,-0.64 2.46473,-1.39186 3.55273,-2.25586 1.088,-0.864 2.12714,-1.82486 3.11914,-2.88086 l 1.15235,3.79297 c 0.576,1.664 1.79243,2.49609 3.64843,2.49609 h 9.21485 v -71.85742 z m 105.642578,21.2168 c -2.912,0 -5.615328,0.38434 -8.111328,1.15234 -2.496,0.736 -4.673297,1.80684 -6.529297,3.21485 -1.824,1.376 -3.262359,3.07384 -4.318359,5.08984 -1.056,1.984 -1.583985,4.22275 -1.583985,6.71875 0,3.008 0.735032,5.64792 2.207032,7.91992 1.504,2.272 3.552531,4.09666 6.144531,5.47266 -1.152,0.544 -2.144563,1.16709 -2.976563,1.87109 -0.832,0.704 -1.520453,1.44098 -2.064453,2.20898 -0.544,0.76801 -0.943218,1.5684 -1.199218,2.4004 -0.256001,0.8 -0.384766,1.56673 -0.384766,2.30273 0,1.824 0.35264,3.31284 1.05664,4.46484 0.704001,1.152 1.66486,2.09603 2.88086,2.83203 -2.304,0.89601 -4.096953,2.07879 -5.376953,3.55079 -1.28,1.472 -1.919922,3.31348 -1.919922,5.52148 0,1.696 0.44775,3.32653 1.34375,4.89453 0.896,1.568 2.272906,2.94491 4.128906,4.12891 1.888,1.216 4.238688,2.19173 7.054688,2.92773 2.848,0.736 6.224906,1.10352 10.128906,1.10352 3.968,0 7.488546,-0.51116 10.560547,-1.53516 3.072,-0.992 5.663391,-2.32037 7.77539,-3.98437 2.112,-1.664 3.712782,-3.56694 4.800782,-5.71094 1.088,-2.144 1.630859,-4.33617 1.630859,-6.57617 0,-2.4 -0.44775,-4.3683 -1.34375,-5.9043 -0.896,-1.568 -2.080734,-2.81614 -3.552734,-3.74414 -1.472,-0.928 -3.151063,-1.59962 -5.039063,-2.01562 -1.856,-0.41601 -3.76089,-0.70524 -5.71289,-0.86524 -1.952001,-0.192 -3.871766,-0.30394 -5.759766,-0.33594 -1.856,-0.064 -3.520188,-0.15911 -4.992188,-0.28711 -1.472,-0.16 -2.654781,-0.41557 -3.550781,-0.76757 -0.896,-0.384 -1.34375,-0.99222 -1.34375,-1.82422 0,-0.832 0.542859,-1.56899 1.630859,-2.20899 1.376001,0.192 2.848016,0.28907 4.416016,0.28907 2.816,0 5.455922,-0.36947 7.919922,-1.10547 2.464,-0.768 4.592766,-1.83885 6.384766,-3.21485 1.824,-1.408 3.247484,-3.10389 4.271484,-5.08789 1.056,-1.984 1.583984,-4.2247 1.583984,-6.7207 0,-1.536 -0.223875,-3.02289 -0.671875,-4.46289 l 3.648438,-0.81641 c 1.12,-0.256 1.903562,-0.62351 2.351562,-1.10351 0.48,-0.48 0.720703,-1.13675 0.720703,-1.96875 v -5.42383 h -15.02539 c -1.6,-0.768 -3.342469,-1.35939 -5.230469,-1.77539 -1.856,-0.416 -3.841125,-0.625 -5.953125,-0.625 z m -53.773438,0.0957 c -3.808,0 -7.23148,0.65675 -10.27148,1.96875 -3.008,1.312 -5.58452,3.08813 -7.72852,5.32813 -2.112,2.24 -3.74448,4.84821 -4.89648,7.82421 -1.12,2.976 -1.67969,6.12708 -1.67969,9.45508 0,4.416 0.65675,8.28919 1.96875,11.61719 1.344,3.328 3.15183,6.11156 5.42383,8.35156 2.304,2.24 4.97562,3.93589 8.01562,5.08789 3.072,1.12 6.35185,1.67969 9.83985,1.67969 1.695996,0 3.472121,-0.12876 5.328121,-0.38477 1.888,-0.224 3.759234,-0.64004 5.615234,-1.24804 1.888,-0.64 3.712656,-1.5038 5.472656,-2.5918 1.792,-1.12 3.456188,-2.56031 4.992188,-4.32031 l -4.320313,-5.32617 c -0.608,-0.864 -1.5035,-1.29688 -2.6875,-1.29688 -0.896,0 -1.759797,0.20705 -2.591797,0.62305 -0.8,0.416 -1.697453,0.88058 -2.689453,1.39258 -0.96,0.512 -2.062547,0.97657 -3.310547,1.39257 -1.248,0.41601 -2.736843,0.62305 -4.464843,0.62305 -3.231996,0 -5.871926,-0.9272 -7.919926,-2.7832 -2.048,-1.888 -3.31101,-4.91227 -3.79101,-9.07227 h 28.703123 c 0.672,0 1.216813,-0.0802 1.632813,-0.24023 0.448,-0.16 0.798687,-0.44728 1.054687,-0.86328 0.256,-0.416 0.433297,-0.97569 0.529297,-1.67969 0.096,-0.704 0.142578,-1.61633 0.142578,-2.73633 0,-3.584 -0.559687,-6.78361 -1.679687,-9.59961 -1.088,-2.848 -2.623422,-5.24917 -4.607422,-7.20117 -1.952,-1.952 -4.304641,-3.43889 -7.056641,-4.46289 -2.72,-1.024 -5.727437,-1.53711 -9.023438,-1.53711 z m 112.187501,0 c -3.8080004,0 -7.2314847,0.65675 -10.2714848,1.96875 -3.008,1.312 -5.5845155,3.08813 -7.7285156,5.32813 -2.112,2.24 -3.7444846,4.84821 -4.8964846,7.82421 -1.12,2.976 -1.679687,6.12708 -1.679687,9.45508 0,4.416 0.65675,8.28919 1.96875,11.61719 1.3439998,3.328 3.1518279,6.11156 5.4238279,8.35156 2.304,2.24 4.975625,3.93589 8.015625,5.08789 3.072,1.12 6.3518437,1.67969 9.8398441,1.67969 1.695999,0 3.472125,-0.12876 5.328125,-0.38477 1.888,-0.224 3.759234,-0.64004 5.615234,-1.24804 1.888,-0.64 3.712656,-1.5038 5.472656,-2.5918 1.792,-1.12 3.456188,-2.56031 4.992188,-4.32031 l -4.320313,-5.32617 c -0.608,-0.864 -1.5035,-1.29688 -2.6875,-1.29688 -0.896,0 -1.759797,0.20705 -2.591797,0.62305 -0.8,0.416 -1.697453,0.88058 -2.689453,1.39258 -0.96,0.512 -2.062547,0.97657 -3.310547,1.39257 -1.248,0.41601 -2.736843,0.62305 -4.464843,0.62305 -3.232,0 -5.8719222,-0.9272 -7.9199222,-2.7832 -2.0480001,-1.888 -3.3110157,-4.91227 -3.7910157,-9.07227 H 30.408203 c 0.672,0 1.216813,-0.0802 1.632813,-0.24023 0.448,-0.16 0.798687,-0.44728 1.054687,-0.86328 0.256,-0.416 0.433297,-0.97569 0.529297,-1.67969 0.096,-0.704 0.142578,-1.61633 0.142578,-2.73633 0,-3.584 -0.559687,-6.78361 -1.679687,-9.59961 -1.088,-2.848 -2.623422,-5.24917 -4.607422,-7.20117 -1.952,-1.952 -4.304641,-3.43889 -7.056641,-4.46289 -2.72,-1.024 -5.727438,-1.53711 -9.023437,-1.53711 z m 63.037109,0 c -1.6,0 -3.086891,0.16047 -4.462891,0.48047 -1.344,0.288 -2.608968,0.70405 -3.792968,1.24805 -1.152,0.512 -2.239672,1.15192 -3.263672,1.91992 -1.024,0.768 -2.016563,1.60009 -2.976563,2.49609 l -0.863281,-2.88086 c -0.576,-1.664 -1.79244,-2.49609 -3.648437,-2.49609 h -9.214844 v 49.77734 H 61.09375 v -35.47265 c 1.312,-1.184 2.688906,-2.12803 4.128906,-2.83204 1.44,-0.704 2.975422,-1.05664 4.607422,-1.05664 2.176,0 3.823359,0.68846 4.94336,2.06446 1.12,1.344 1.68164,3.23206 1.68164,5.66406 v 31.63281 h 14.878906 v -31.63281 c 0,-2.72 -0.367515,-5.23116 -1.103515,-7.53516 -0.736,-2.336 -1.823672,-4.336 -3.263672,-6 -1.44,-1.696 -3.216125,-3.00754 -5.328125,-3.93554 -2.08,-0.96 -4.481172,-1.44141 -7.201172,-1.44141 z m -121.451172,9.93555 c 2.464,0 4.240125,0.57651 5.328125,1.72851 1.12,1.152 1.679688,2.73596 1.679688,4.75196 0,1.952 -0.559688,3.55278 -1.679688,4.80078 -1.088,1.216 -2.864125,1.82422 -5.328125,1.82422 -1.216,0 -2.271969,-0.16047 -3.167969,-0.48047 -0.864,-0.352 -1.584156,-0.81658 -2.160156,-1.39258 -0.576,-0.608 -1.006922,-1.31133 -1.294922,-2.11133 -0.256,-0.8 -0.384765,-1.68062 -0.384765,-2.64062 0,-2.016 0.544812,-3.59996 1.632812,-4.75196 1.12,-1.152 2.911,-1.72851 5.375,-1.72851 z M -100.5,-171.57812 c 1.6,0 2.960078,0.2724 4.080078,0.8164 1.12,0.544 2.017453,1.26416 2.689453,2.16016 0.704,0.864 1.198328,1.85656 1.486328,2.97656 0.32,1.12 0.480469,2.27108 0.480469,3.45508 h -18.576168 c 0.512,-3.04 1.56796,-5.35899 3.16796,-6.95899 1.60001,-1.632 3.82388,-2.44921 6.67188,-2.44921 z m 112.1875,0 c 1.6,0 2.960078,0.2724 4.080078,0.8164 1.12,0.544 2.017453,1.26416 2.689453,2.16016 0.704,0.864 1.198328,1.85656 1.486328,2.97656 0.32,1.12 0.480469,2.27108 0.480469,3.45508 H 1.8476562 c 0.5120001,-3.04 1.5679688,-5.35899 3.1679688,-6.95899 1.6,-1.632 3.823875,-2.44921 6.671875,-2.44921 z m -172.11914,0.48046 c 1.44,0 2.80008,0.25558 4.08008,0.76758 1.312,0.48 2.54331,1.34575 3.69531,2.59375 v 21.11914 c -0.64,0.768 -1.29675,1.43963 -1.96875,2.01563 -0.64,0.576 -1.3265,1.05545 -2.0625,1.43945 -0.736,0.384 -1.55322,0.68811 -2.44922,0.91211 -0.864,0.192 -1.83973,0.28906 -2.92773,0.28906 -1.184,0 -2.2568,-0.2407 -3.2168,-0.7207 -0.96,-0.48 -1.79209,-1.26356 -2.49609,-2.35156 -0.672,-1.12 -1.19999,-2.57519 -1.58399,-4.36719 -0.384,-1.792 -0.57422,-4.001 -0.57422,-6.625 0,-2.72 0.23875,-5.03898 0.71875,-6.95899 0.48,-1.92 1.13675,-3.47224 1.96875,-4.65624 0.864,-1.21601 1.87144,-2.09663 3.02344,-2.64063 1.152,-0.544 2.41697,-0.81641 3.79297,-0.81641 z m 107.226562,37.15235 c 2.08,0.224 4.175109,0.36764 6.287109,0.43164 2.112,0.032 4.016891,0.16076 5.712891,0.38476 1.696,0.192 3.070953,0.55952 4.126953,1.10352 1.056,0.512 1.583984,1.36092 1.583984,2.54492 0,0.736 -0.158515,1.40763 -0.478515,2.01563 -0.32,0.64 -0.896516,1.18286 -1.728516,1.63086 -0.8,0.448 -1.887672,0.80064 -3.263672,1.05664 -1.376,0.256 -3.13725,0.38476 -5.28125,0.38476 -1.984,0 -3.631359,-0.12876 -4.943359,-0.38476 -1.28,-0.224 -2.304266,-0.54299 -3.072266,-0.95899 -0.768,-0.416 -1.310859,-0.91228 -1.630859,-1.48828 -0.288,-0.576 -0.433594,-1.21592 -0.433594,-1.91992 0,-0.992 0.289234,-1.87263 0.865234,-2.64063 0.576001,-0.8 1.32786,-1.52015 2.25586,-2.16015 z"
           transform="matrix(0.26458333,0,0,0.26458333,0,271.87277)"
           id="path934"
           inkscape:connector-curvature="0" />
        <path
           style="font-style:normal;font-variant:normal;font-weight:900;font-stretch:normal;font-size:25.39999962px;line-height:1.25;font-family:Lato;-inkscape-font-specification:'Lato Heavy';letter-spacing:1.32291663px;word-spacing:0px;fill:#ffcc00;fill-opacity:1;stroke:none;stroke-width:0.99999994"
           d="m 105.96484,-203.16211 v 71.85742 h 9.88672 c 0.96,0 1.72869,-0.19217 2.30469,-0.57617 0.576,-0.384 0.99205,-1.08928 1.24805,-2.11328 l 0.52734,-2.49414 c 0.768,0.864 1.55156,1.66244 2.35156,2.39844 0.832,0.736 1.74433,1.37592 2.73633,1.91992 0.992,0.512 2.07967,0.91317 3.26367,1.20117 1.184,0.288 2.52921,0.43164 4.03321,0.43164 3.136,0 5.99979,-0.63992 8.59179,-1.91992 2.592,-1.312 4.81588,-3.13666 6.67188,-5.47266 1.888,-2.368 3.34319,-5.20009 4.36719,-8.49609 1.024,-3.296 1.53711,-6.96019 1.53711,-10.99219 0,-3.712 -0.44775,-7.07208 -1.34376,-10.08008 -0.864,-3.008 -2.11214,-5.56768 -3.74414,-7.67968 -1.632,-2.144 -3.60029,-3.79136 -5.90429,-4.94336 -2.304,-1.152 -4.86369,-1.72852 -7.67969,-1.72852 -2.848,0 -5.40769,0.55969 -7.67969,1.67969 -2.272,1.088 -4.36906,2.56001 -6.28906,4.41601 v -27.4082 z m 80.8125,21.12109 c -4.192,0 -8.12859,0.65675 -11.80859,1.96875 -3.648,1.28 -6.97637,3.24635 -9.98437,5.90235 l 2.68945,4.65625 c 0.448,0.704 1.02256,1.31222 1.72656,1.82422 0.704,0.512 1.5678,0.76757 2.5918,0.76757 1.152,0 2.14456,-0.19217 2.97656,-0.57617 0.832,-0.384 1.68092,-0.81492 2.54492,-1.29492 0.896,-0.48 1.90344,-0.91287 3.02344,-1.29687 1.12,-0.384 2.56031,-0.57618 4.32031,-0.57618 2.208,0 3.90389,0.65675 5.08789,1.96875 1.216,1.28 1.82422,3.37707 1.82422,6.28907 v 2.11132 c -5.696,0.12801 -10.41615,0.70452 -14.16015,1.72852 -3.74401,1.024 -6.71974,2.30384 -8.92774,3.83984 -2.208,1.504 -3.76025,3.18307 -4.65625,5.03907 -0.896,1.856 -1.34375,3.66382 -1.34375,5.42383 0,2.24 0.35069,4.22512 1.05469,5.95312 0.704,1.696 1.69656,3.11948 2.97656,4.27148 1.312,1.152 2.89595,2.03263 4.75195,2.64063 1.856,0.576 3.91941,0.86328 6.19141,0.86328 1.696,0 3.23337,-0.14364 4.60937,-0.43164 1.40801,-0.256 2.71955,-0.65717 3.93555,-1.20117 1.248,-0.576 2.44761,-1.2625 3.59961,-2.0625 1.152,-0.8 2.35161,-1.72916 3.59961,-2.78516 l 1.05664,2.73633 c 0.48,1.216 1.07139,2.01639 1.77539,2.40039 0.736,0.384 1.8088,0.57617 3.2168,0.57617 h 6.8164 v -31.10351 c 0,-2.848 -0.44774,-5.47305 -1.34374,-7.87305 -0.89601,-2.4 -2.19268,-4.46341 -3.88868,-6.19141 -1.664,-1.76 -3.71253,-3.12007 -6.14453,-4.08007 -2.4,-0.992 -5.10333,-1.48829 -8.11133,-1.48829 z m 114.4375,0 c -4.19199,0 -8.12859,0.65675 -11.80859,1.96875 -3.648,1.28 -6.97637,3.24635 -9.98437,5.90235 l 2.68945,4.65625 c 0.448,0.704 1.02256,1.31222 1.72656,1.82422 0.704,0.512 1.5678,0.76757 2.5918,0.76757 1.152,0 2.14456,-0.19217 2.97656,-0.57617 0.832,-0.384 1.68092,-0.81492 2.54492,-1.29492 0.896,-0.48 1.90344,-0.91287 3.02344,-1.29687 1.12,-0.384 2.56031,-0.57618 4.32031,-0.57618 2.208,0 3.90389,0.65675 5.08789,1.96875 1.216,1.28 1.82422,3.37707 1.82422,6.28907 v 2.11132 c -5.696,0.12801 -10.41615,0.70452 -14.16015,1.72852 -3.74401,1.024 -6.71974,2.30384 -8.92774,3.83984 -2.208,1.504 -3.76025,3.18307 -4.65625,5.03907 -0.896,1.856 -1.34375,3.66382 -1.34375,5.42383 0,2.24 0.35069,4.22512 1.05469,5.95312 0.704,1.696 1.69656,3.11948 2.97656,4.27148 1.312,1.152 2.89595,2.03263 4.75195,2.64063 1.856,0.576 3.91941,0.86328 6.19141,0.86328 1.696,0 3.23337,-0.14364 4.60937,-0.43164 1.40801,-0.256 2.71955,-0.65717 3.93555,-1.20117 1.248,-0.576 2.44761,-1.2625 3.59961,-2.0625 1.152,-0.8 2.35161,-1.72916 3.59961,-2.78516 l 1.05664,2.73633 c 0.48,1.216 1.07139,2.01639 1.77539,2.40039 0.736,0.384 1.8088,0.57617 3.2168,0.57617 h 6.8164 v -31.10351 c 0,-2.848 -0.44774,-5.47305 -1.34374,-7.87305 -0.89601,-2.4 -2.19268,-4.46341 -3.88868,-6.19141 -1.664,-1.76 -3.71253,-3.12007 -6.14453,-4.08007 -2.4,-0.992 -5.10333,-1.48829 -8.11133,-1.48829 z m 114.4375,0 c -4.192,0 -8.12859,0.65675 -11.80859,1.96875 -3.648,1.28 -6.97637,3.24635 -9.98437,5.90235 l 2.68945,4.65625 c 0.448,0.704 1.02256,1.31222 1.72656,1.82422 0.704,0.512 1.5678,0.76757 2.5918,0.76757 1.152,0 2.14456,-0.19217 2.97656,-0.57617 0.832,-0.384 1.68092,-0.81492 2.54492,-1.29492 0.896,-0.48 1.90344,-0.91287 3.02344,-1.29687 1.12,-0.384 2.56031,-0.57618 4.32031,-0.57618 2.208,0 3.90389,0.65675 5.08789,1.96875 1.216,1.28 1.82422,3.37707 1.82422,6.28907 v 2.11132 c -5.696,0.12801 -10.41615,0.70452 -14.16015,1.72852 -3.74401,1.024 -6.71974,2.30384 -8.92774,3.83984 -2.208,1.504 -3.76025,3.18307 -4.65625,5.03907 -0.896,1.856 -1.34375,3.66382 -1.34375,5.42383 0,2.24 0.35069,4.22512 1.05469,5.95312 0.704,1.696 1.69656,3.11948 2.97656,4.27148 1.312,1.152 2.89595,2.03263 4.75195,2.64063 1.856,0.576 3.91941,0.86328 6.19141,0.86328 1.696,0 3.23337,-0.14364 4.60937,-0.43164 1.40801,-0.256 2.71955,-0.65717 3.93555,-1.20117 1.248,-0.576 2.44761,-1.2625 3.59961,-2.0625 1.152,-0.8 2.35161,-1.72916 3.59961,-2.78516 l 1.05664,2.73633 c 0.48,1.216 1.07139,2.01639 1.77539,2.40039 0.736,0.384 1.8088,0.57617 3.2168,0.57617 h 6.8164 v -31.10351 c 0,-2.848 -0.44774,-5.47305 -1.34374,-7.87305 -0.89601,-2.4 -2.19268,-4.46341 -3.88868,-6.19141 -1.664,-1.76 -3.71253,-3.12007 -6.14453,-4.08007 -2.4,-0.992 -5.10333,-1.48829 -8.11133,-1.48829 z M 249,-181.84961 c -1.6,0 -3.08689,0.16047 -4.46289,0.48047 -1.344,0.288 -2.60897,0.70405 -3.79297,1.24805 -1.152,0.512 -2.23967,1.15192 -3.26367,1.91992 -1.024,0.768 -2.01656,1.60009 -2.97656,2.49609 l -0.86329,-2.88086 c -0.576,-1.664 -1.79243,-2.49609 -3.64843,-2.49609 h -9.21485 v 49.77734 h 14.87891 v -35.47265 c 1.312,-1.184 2.68891,-2.12803 4.12891,-2.83204 1.44,-0.704 2.97542,-1.05664 4.60742,-1.05664 2.176,0 3.82336,0.68846 4.94336,2.06446 1.12,1.344 1.68164,3.23206 1.68164,5.66406 v 31.63281 h 14.8789 v -31.63281 c 0,-2.72 -0.36751,-5.23116 -1.10351,-7.53516 -0.736,-2.336 -1.82367,-4.336 -3.26367,-6 -1.44,-1.696 -3.21613,-3.00754 -5.32813,-3.93554 -2.08,-0.96 -4.48117,-1.44141 -7.20117,-1.44141 z m 114.4375,0 c -1.6,0 -3.08689,0.16047 -4.46289,0.48047 -1.344,0.288 -2.60897,0.70405 -3.79297,1.24805 -1.152,0.512 -2.23967,1.15192 -3.26367,1.91992 -1.024,0.768 -2.01656,1.60009 -2.97656,2.49609 l -0.86329,-2.88086 c -0.576,-1.664 -1.79243,-2.49609 -3.64843,-2.49609 h -9.21485 v 49.77734 h 14.87891 v -35.47265 c 1.312,-1.184 2.68891,-2.12803 4.12891,-2.83204 1.44,-0.704 2.97542,-1.05664 4.60742,-1.05664 2.176,0 3.82336,0.68846 4.94336,2.06446 1.12,1.344 1.68164,3.23206 1.68164,5.66406 v 31.63281 h 14.8789 v -31.63281 c 0,-2.72 -0.36751,-5.23116 -1.10351,-7.53516 -0.736,-2.336 -1.82367,-4.336 -3.26367,-6 -1.44,-1.696 -3.21613,-3.00754 -5.32813,-3.93554 -2.08,-0.96 -4.48117,-1.44141 -7.20117,-1.44141 z m -233.85742,11.18359 c 1.376,0 2.59244,0.25754 3.64844,0.76954 1.088,0.48 1.9835,1.27843 2.6875,2.39843 0.736,1.088 1.28081,2.51344 1.63281,4.27344 0.384,1.728 0.57617,3.83994 0.57617,6.33594 0,2.88 -0.2407,5.31092 -0.7207,7.29492 -0.48,1.952 -1.15163,3.53595 -2.01563,4.75195 -0.832,1.184 -1.84139,2.0478 -3.02539,2.5918 -1.184,0.512 -2.47872,0.76953 -3.88672,0.76953 -1.344,0 -2.67237,-0.2407 -3.98437,-0.7207 -1.312,-0.512 -2.52844,-1.39263 -3.64844,-2.64063 v -21.11914 c 1.312,-1.536 2.64037,-2.7039 3.98437,-3.5039 1.34401,-0.8 2.92796,-1.20118 4.75196,-1.20118 z m 62.18945,19.10547 v 6.91211 c -1.472,1.504 -2.92914,2.59167 -4.36914,3.26367 -1.44,0.672 -3.11906,1.00782 -5.03906,1.00782 -1.792,0 -3.15208,-0.33582 -4.08008,-1.00782 -0.928,-0.704 -1.39258,-1.9036 -1.39258,-3.59961 0,-0.864 0.209,-1.66439 0.625,-2.40039 0.448,-0.736 1.23156,-1.39275 2.35156,-1.96875 1.12,-0.576 2.64055,-1.05545 4.56055,-1.43945 1.92,-0.384 4.36775,-0.63958 7.34375,-0.76758 z m 114.4375,0 v 6.91211 c -1.472,1.504 -2.92914,2.59167 -4.36914,3.26367 -1.44,0.672 -3.11906,1.00782 -5.03906,1.00782 -1.792,0 -3.15208,-0.33582 -4.08008,-1.00782 -0.928,-0.704 -1.39258,-1.9036 -1.39258,-3.59961 0,-0.864 0.209,-1.66439 0.625,-2.40039 0.448,-0.736 1.23156,-1.39275 2.35156,-1.96875 1.12,-0.576 2.64055,-1.05545 4.56055,-1.43945 1.92,-0.384 4.36775,-0.63958 7.34375,-0.76758 z m 114.4375,0 v 6.91211 c -1.472,1.504 -2.92914,2.59167 -4.36914,3.26367 -1.44,0.672 -3.11906,1.00782 -5.03906,1.00782 -1.792,0 -3.15208,-0.33582 -4.08008,-1.00782 -0.928,-0.704 -1.39258,-1.9036 -1.39258,-3.59961 0,-0.864 0.209,-1.66439 0.625,-2.40039 0.448,-0.736 1.23156,-1.39275 2.35156,-1.96875 1.12,-0.576 2.64055,-1.05545 4.56055,-1.43945 1.92,-0.384 4.36775,-0.63958 7.34375,-0.76758 z"
           transform="matrix(0.26458333,0,0,0.26458333,0,271.87277)"
           id="path944"
           inkscape:connector-curvature="0" />
      </g>
    </g>
  </g>
</svg>
