<?xml version="1.0" standalone="no"?>
<!DOCTYPE svg PUBLIC "-//W3C//DTD SVG 20010904//EN"
 "http://www.w3.org/TR/2001/REC-SVG-20010904/DTD/svg10.dtd">
<svg version="1.0" xmlns="http://www.w3.org/2000/svg"
 width="800.000000pt" height="800.000000pt" viewBox="0 0 800.000000 800.000000"
 preserveAspectRatio="xMidYMid meet">
<metadata>
Created by potrace 1.14, written by Peter Selinger 2001-2017
</metadata>
<g transform="translate(0.000000,800.000000) scale(0.100000,-0.100000)"
fill="#000000" stroke="none">
<path d="M5835 7641 c-61 -22 -97 -41 -119 -64 -9 -9 -25 -22 -35 -29 -20 -15
-55 -78 -68 -123 -10 -32 -9 -102 1 -150 14 -74 19 -91 26 -100 7 -10 17 -53
24 -110 3 -16 5 -31 6 -32 2 -2 3 -11 4 -20 1 -10 4 -23 8 -29 4 -6 4 -14 1
-18 -4 -4 -7 -33 -8 -66 0 -32 -3 -62 -7 -65 -4 -4 -3 -18 2 -31 5 -13 8 -24
5 -24 -2 0 2 -12 10 -27 8 -15 12 -30 9 -35 -3 -4 -2 -8 3 -8 4 0 14 -14 22
-32 13 -29 26 -48 56 -82 19 -21 76 -136 68 -136 -4 0 -3 -4 4 -8 7 -4 15 -23
18 -42 3 -19 11 -38 18 -42 6 -4 8 -10 5 -14 -4 -3 -1 -21 6 -38 7 -17 12 -39
10 -49 -1 -9 1 -17 6 -17 4 0 6 -10 6 -22 -1 -13 2 -29 7 -35 5 -7 7 -19 4
-27 -3 -8 -3 -17 1 -20 3 -4 5 -28 3 -54 -1 -26 -2 -62 -3 -79 0 -18 -3 -33
-7 -33 -3 0 -7 -15 -8 -33 -2 -39 -6 -58 -17 -75 -4 -7 -6 -16 -3 -19 3 -2 -1
-22 -8 -44 -8 -21 -12 -39 -8 -39 3 0 0 -7 -7 -15 -7 -8 -10 -15 -7 -15 4 0
-1 -19 -10 -42 -8 -24 -15 -51 -15 -60 0 -10 -3 -20 -8 -23 -5 -3 -7 -12 -3
-20 3 -8 1 -15 -4 -15 -5 0 -10 -6 -11 -12 -1 -25 -13 -71 -21 -87 -5 -9 -10
-19 -10 -23 -7 -43 -15 -69 -22 -74 -4 -2 -6 -11 -3 -18 3 -8 0 -17 -5 -21 -6
-3 -9 -10 -6 -15 3 -5 1 -11 -4 -15 -6 -3 -8 -12 -4 -20 3 -8 1 -15 -4 -15 -5
0 -10 -6 -11 -12 0 -7 -3 -24 -7 -38 -4 -14 -7 -31 -7 -37 -1 -7 -5 -13 -9
-13 -4 0 -6 -8 -5 -17 2 -10 -1 -21 -5 -24 -5 -3 -10 -17 -11 -32 -1 -15 -6
-27 -11 -27 -4 0 -6 -4 -2 -9 3 -5 1 -20 -4 -33 -19 -46 -24 -63 -28 -88 -2
-13 -7 -27 -11 -30 -4 -3 -8 -14 -10 -25 -2 -19 -8 -44 -12 -55 -1 -3 -2 -8
-1 -12 0 -5 -4 -8 -10 -8 -5 0 -8 -3 -6 -7 3 -5 0 -19 -6 -33 -5 -14 -12 -34
-14 -44 -2 -11 -7 -24 -12 -30 -5 -6 -12 -26 -16 -43 -3 -18 -10 -33 -14 -33
-4 0 -7 -8 -8 -17 -1 -10 -10 -36 -19 -58 -10 -22 -17 -43 -16 -47 1 -5 -2 -8
-8 -8 -5 0 -7 -7 -4 -15 4 -8 1 -15 -6 -15 -7 0 -10 -7 -6 -15 3 -8 1 -15 -4
-15 -6 0 -10 -9 -10 -20 0 -11 -4 -20 -10 -20 -5 0 -10 -9 -10 -20 0 -11 -4
-20 -10 -20 -5 0 -7 -6 -4 -14 3 -7 -2 -20 -10 -29 -9 -9 -16 -23 -16 -31 0
-9 -4 -16 -8 -16 -5 0 -14 -18 -21 -40 -6 -22 -16 -40 -21 -40 -6 0 -10 -8
-10 -19 0 -10 -6 -23 -13 -29 -7 -6 -19 -27 -27 -47 -7 -19 -17 -35 -22 -35
-4 0 -8 -4 -8 -9 0 -7 -34 -65 -103 -175 -7 -11 -19 -28 -28 -38 -9 -11 -25
-34 -35 -53 -10 -19 -22 -35 -26 -35 -4 0 -19 -20 -34 -45 -14 -25 -30 -45
-36 -45 -5 0 -6 -4 -3 -10 3 -5 2 -10 -2 -10 -5 0 -33 -33 -63 -72 -66 -87
-86 -111 -123 -149 -16 -16 -26 -29 -24 -29 13 0 -305 -323 -388 -395 -32 -27
-67 -59 -79 -70 -37 -35 -130 -110 -136 -110 -3 0 -18 -11 -32 -25 -34 -34
-55 -50 -110 -88 -26 -18 -52 -38 -60 -45 -25 -24 -273 -184 -348 -225 -147
-79 -294 -150 -435 -212 -104 -46 -140 -61 -205 -85 -41 -15 -84 -31 -95 -36
-43 -18 -201 -72 -215 -73 -9 -1 -20 -5 -25 -8 -6 -3 -55 -18 -110 -33 -55
-14 -111 -31 -125 -36 -37 -13 -233 -59 -277 -65 -20 -2 -103 -26 -183 -53
-136 -46 -322 -100 -400 -117 -44 -10 -37 -8 -90 -24 -25 -7 -49 -14 -55 -15
-24 -6 -113 -34 -140 -46 -16 -6 -35 -13 -42 -15 -23 -4 -145 -56 -226 -94
-87 -42 -207 -146 -207 -180 0 -9 -3 -20 -8 -24 -7 -7 -11 -64 -13 -188 -1
-32 -4 -56 -8 -53 -4 2 -6 -12 -5 -31 2 -19 0 -34 -5 -34 -14 0 -3 -101 13
-119 9 -10 13 -20 10 -24 -9 -9 86 -106 121 -124 17 -9 32 -19 35 -24 9 -13
302 -156 398 -193 50 -20 134 -52 185 -72 104 -41 171 -61 237 -70 25 -3 81
-12 125 -19 188 -29 461 -27 623 4 50 10 127 19 219 26 23 1 46 6 52 9 6 4 11
3 11 -3 0 -9 44 -6 62 5 5 3 21 8 36 10 15 3 72 27 127 53 55 27 118 52 140
56 22 5 47 10 55 11 33 7 180 24 255 29 146 11 224 31 435 115 60 23 372 179
380 189 3 3 12 7 20 9 8 2 23 10 32 19 9 8 21 12 27 9 5 -4 13 -2 16 4 4 6 28
20 53 33 26 12 90 46 142 75 52 30 115 66 140 80 25 14 57 34 71 46 39 31 237
156 247 156 4 0 14 6 20 13 7 6 16 12 20 12 7 1 43 19 132 68 130 71 403 272
512 376 120 115 198 196 198 204 0 6 3 8 6 4 7 -7 203 188 271 269 23 27 50
59 60 71 10 11 25 31 33 43 8 12 30 39 47 59 18 20 33 41 33 46 0 6 9 17 19
25 11 7 18 17 15 22 -3 4 0 8 6 8 6 0 8 5 5 10 -3 6 0 13 8 15 7 3 47 56 88
118 41 62 77 114 82 115 4 2 7 10 7 18 0 8 5 14 10 14 6 0 10 7 10 15 0 8 5
15 11 15 5 0 8 4 5 9 -3 5 1 14 9 21 8 7 15 19 15 26 0 8 4 14 8 14 10 0 37
50 34 63 -1 4 3 7 8 7 9 0 26 31 29 53 0 4 10 17 20 29 11 11 18 25 15 29 -2
4 0 10 6 14 5 3 10 15 10 26 0 10 5 19 10 19 6 0 10 4 10 10 0 5 12 35 27 67
14 32 27 60 28 63 1 3 9 22 18 42 10 21 17 42 17 48 0 5 4 10 10 10 5 0 9 3 8
8 -3 14 14 62 23 62 5 0 8 3 8 8 -3 16 14 72 22 72 5 0 6 7 3 15 -4 8 -1 15 6
15 7 0 10 7 6 15 -3 8 -1 15 4 15 6 0 10 8 10 18 0 10 5 23 12 30 7 7 9 12 5
12 -3 0 2 20 13 45 11 25 17 45 13 45 -3 0 0 7 7 15 7 8 9 15 5 15 -4 0 -2 6
4 13 6 8 8 17 4 20 -3 4 -2 7 4 7 5 0 10 6 11 13 1 18 9 47 26 98 9 25 18 56
20 70 3 13 5 25 7 27 1 1 2 5 3 10 1 4 5 16 9 27 3 11 8 31 11 45 3 14 9 42
15 62 5 20 6 39 3 42 -3 4 0 6 5 6 6 0 10 8 8 18 -1 9 2 22 7 29 5 7 7 17 3
22 -3 6 -2 19 4 29 5 10 12 38 15 63 2 24 5 44 7 44 2 0 6 30 11 77 1 21 5 38
8 38 3 0 5 21 5 48 0 26 2 52 5 57 5 10 6 26 16 200 3 55 6 118 7 140 1 22 0
44 -2 50 -3 5 -6 30 -7 55 -1 25 -3 46 -4 48 -1 1 -4 11 -5 22 -1 11 -3 21 -5
23 -1 1 -3 11 -5 22 -10 65 -18 102 -26 118 -6 9 -7 22 -4 27 3 6 1 10 -4 10
-6 0 -11 8 -11 19 0 10 -7 35 -15 55 -8 20 -15 38 -16 41 0 11 -77 148 -92
166 -9 10 -13 19 -9 19 4 0 3 4 -3 8 -5 4 -26 30 -45 57 -42 61 -58 81 -87
112 -13 13 -23 26 -23 28 0 2 -27 30 -61 62 -154 147 -321 313 -315 313 3 0
-6 14 -21 31 -37 41 -100 155 -113 204 -6 22 -14 47 -17 55 -3 8 -8 24 -10 35
-7 33 -11 50 -13 55 -1 3 -2 9 -1 14 1 4 -4 14 -10 22 -6 8 -9 14 -6 14 3 0
-1 20 -9 45 -7 25 -10 45 -7 45 3 0 1 6 -3 13 -5 6 -8 26 -6 42 12 108 2 244
-22 329 -9 30 -16 59 -15 63 1 4 0 10 -1 13 -1 3 -4 19 -6 35 -4 39 -8 54 -24
90 -7 17 -13 33 -12 38 1 4 -3 7 -9 7 -5 0 -8 4 -5 9 3 5 0 14 -8 20 -7 6 -21
29 -31 51 -10 22 -22 40 -27 40 -4 0 -8 5 -8 12 0 7 -17 27 -37 45 -95 85
-171 106 -258 74z"/>
</g>
</svg>
